<mxfile host="Electron" agent="Mozilla/5.0 (Macintosh; Intel Mac OS X 10_15_7) AppleWebKit/537.36 (KHTML, like Gecko) draw.io/28.1.2 Chrome/138.0.7204.243 Electron/37.4.0 Safari/537.36" version="28.1.2">
  <diagram id="C5RBs43oDa-KdzZeNtuy" name="Page-1">
    <mxGraphModel dx="1106" dy="1031" grid="1" gridSize="10" guides="1" tooltips="1" connect="1" arrows="1" fold="1" page="1" pageScale="1" pageWidth="827" pageHeight="1169" math="0" shadow="0">
      <root>
        <mxCell id="WIyWlLk6GJQsqaUBKTNV-0" />
        <mxCell id="WIyWlLk6GJQsqaUBKTNV-1" parent="WIyWlLk6GJQsqaUBKTNV-0" />
        <mxCell id="TQT5Zc869bJqwaSMdIlr-2" style="edgeStyle=orthogonalEdgeStyle;rounded=0;orthogonalLoop=1;jettySize=auto;html=1;exitX=0.5;exitY=1;exitDx=0;exitDy=0;entryX=0.5;entryY=0;entryDx=0;entryDy=0;endArrow=blockThin;endFill=0;" edge="1" parent="WIyWlLk6GJQsqaUBKTNV-1" source="WIyWlLk6GJQsqaUBKTNV-3" target="TQT5Zc869bJqwaSMdIlr-1">
          <mxGeometry relative="1" as="geometry" />
        </mxCell>
        <mxCell id="WIyWlLk6GJQsqaUBKTNV-3" value="基于文件进行批量发送" style="rounded=1;whiteSpace=wrap;html=1;fontSize=12;glass=0;strokeWidth=1;shadow=0;" parent="WIyWlLk6GJQsqaUBKTNV-1" vertex="1">
          <mxGeometry x="160" y="80" width="140" height="40" as="geometry" />
        </mxCell>
        <mxCell id="TQT5Zc869bJqwaSMdIlr-4" style="edgeStyle=orthogonalEdgeStyle;rounded=0;orthogonalLoop=1;jettySize=auto;html=1;exitX=0.5;exitY=1;exitDx=0;exitDy=0;entryX=0.5;entryY=0;entryDx=0;entryDy=0;endArrow=blockThin;endFill=0;" edge="1" parent="WIyWlLk6GJQsqaUBKTNV-1" source="TQT5Zc869bJqwaSMdIlr-1" target="TQT5Zc869bJqwaSMdIlr-3">
          <mxGeometry relative="1" as="geometry" />
        </mxCell>
        <mxCell id="TQT5Zc869bJqwaSMdIlr-1" value="根据分隔符识别标签" style="rounded=1;whiteSpace=wrap;html=1;fontSize=12;glass=0;strokeWidth=1;shadow=0;" vertex="1" parent="WIyWlLk6GJQsqaUBKTNV-1">
          <mxGeometry x="160" y="180" width="140" height="40" as="geometry" />
        </mxCell>
        <mxCell id="TQT5Zc869bJqwaSMdIlr-6" style="edgeStyle=orthogonalEdgeStyle;rounded=0;orthogonalLoop=1;jettySize=auto;html=1;exitX=0.5;exitY=1;exitDx=0;exitDy=0;endArrow=blockThin;endFill=0;" edge="1" parent="WIyWlLk6GJQsqaUBKTNV-1" source="TQT5Zc869bJqwaSMdIlr-3" target="TQT5Zc869bJqwaSMdIlr-5">
          <mxGeometry relative="1" as="geometry" />
        </mxCell>
        <mxCell id="TQT5Zc869bJqwaSMdIlr-7" value="循环字典" style="edgeLabel;html=1;align=center;verticalAlign=middle;resizable=0;points=[];" vertex="1" connectable="0" parent="TQT5Zc869bJqwaSMdIlr-6">
          <mxGeometry y="1" relative="1" as="geometry">
            <mxPoint as="offset" />
          </mxGeometry>
        </mxCell>
        <mxCell id="TQT5Zc869bJqwaSMdIlr-3" value="构建标签-文件字典" style="rounded=1;whiteSpace=wrap;html=1;fontSize=12;glass=0;strokeWidth=1;shadow=0;" vertex="1" parent="WIyWlLk6GJQsqaUBKTNV-1">
          <mxGeometry x="160" y="280" width="140" height="40" as="geometry" />
        </mxCell>
        <mxCell id="TQT5Zc869bJqwaSMdIlr-8" style="edgeStyle=orthogonalEdgeStyle;rounded=0;orthogonalLoop=1;jettySize=auto;html=1;exitX=0;exitY=0.5;exitDx=0;exitDy=0;endArrow=blockThin;endFill=0;" edge="1" parent="WIyWlLk6GJQsqaUBKTNV-1" source="TQT5Zc869bJqwaSMdIlr-5">
          <mxGeometry relative="1" as="geometry">
            <mxPoint x="100" y="445" as="targetPoint" />
          </mxGeometry>
        </mxCell>
        <mxCell id="TQT5Zc869bJqwaSMdIlr-9" value="否" style="edgeLabel;html=1;align=center;verticalAlign=middle;resizable=0;points=[];" vertex="1" connectable="0" parent="TQT5Zc869bJqwaSMdIlr-8">
          <mxGeometry x="-0.1684" y="-1" relative="1" as="geometry">
            <mxPoint as="offset" />
          </mxGeometry>
        </mxCell>
        <mxCell id="TQT5Zc869bJqwaSMdIlr-13" style="edgeStyle=orthogonalEdgeStyle;rounded=0;orthogonalLoop=1;jettySize=auto;html=1;exitX=0.5;exitY=1;exitDx=0;exitDy=0;entryX=0.5;entryY=1;entryDx=0;entryDy=0;endArrow=blockThin;endFill=0;" edge="1" parent="WIyWlLk6GJQsqaUBKTNV-1" source="TQT5Zc869bJqwaSMdIlr-5" target="TQT5Zc869bJqwaSMdIlr-12">
          <mxGeometry relative="1" as="geometry">
            <Array as="points">
              <mxPoint x="230" y="550" />
              <mxPoint x="520" y="550" />
            </Array>
          </mxGeometry>
        </mxCell>
        <mxCell id="TQT5Zc869bJqwaSMdIlr-14" value="是" style="edgeLabel;html=1;align=center;verticalAlign=middle;resizable=0;points=[];" vertex="1" connectable="0" parent="TQT5Zc869bJqwaSMdIlr-13">
          <mxGeometry x="-0.0125" relative="1" as="geometry">
            <mxPoint as="offset" />
          </mxGeometry>
        </mxCell>
        <mxCell id="TQT5Zc869bJqwaSMdIlr-5" value="数据库是否存在对应标签" style="rhombus;whiteSpace=wrap;html=1;" vertex="1" parent="WIyWlLk6GJQsqaUBKTNV-1">
          <mxGeometry x="150" y="390" width="160" height="110" as="geometry" />
        </mxCell>
        <mxCell id="TQT5Zc869bJqwaSMdIlr-10" value="跳过" style="text;html=1;align=center;verticalAlign=middle;resizable=0;points=[];autosize=1;strokeColor=none;fillColor=none;" vertex="1" parent="WIyWlLk6GJQsqaUBKTNV-1">
          <mxGeometry x="50" y="430" width="50" height="30" as="geometry" />
        </mxCell>
        <mxCell id="TQT5Zc869bJqwaSMdIlr-15" style="edgeStyle=orthogonalEdgeStyle;rounded=0;orthogonalLoop=1;jettySize=auto;html=1;exitX=0;exitY=0.5;exitDx=0;exitDy=0;endArrow=blockThin;endFill=0;entryX=0.5;entryY=1;entryDx=0;entryDy=0;" edge="1" parent="WIyWlLk6GJQsqaUBKTNV-1" source="TQT5Zc869bJqwaSMdIlr-12" target="TQT5Zc869bJqwaSMdIlr-18">
          <mxGeometry relative="1" as="geometry">
            <mxPoint x="380" y="445" as="targetPoint" />
          </mxGeometry>
        </mxCell>
        <mxCell id="TQT5Zc869bJqwaSMdIlr-16" value="否" style="edgeLabel;html=1;align=center;verticalAlign=middle;resizable=0;points=[];" vertex="1" connectable="0" parent="TQT5Zc869bJqwaSMdIlr-15">
          <mxGeometry x="-0.1765" relative="1" as="geometry">
            <mxPoint as="offset" />
          </mxGeometry>
        </mxCell>
        <mxCell id="TQT5Zc869bJqwaSMdIlr-20" style="edgeStyle=orthogonalEdgeStyle;rounded=0;orthogonalLoop=1;jettySize=auto;html=1;exitX=0.5;exitY=0;exitDx=0;exitDy=0;entryX=0.5;entryY=1;entryDx=0;entryDy=0;endArrow=blockThin;endFill=0;" edge="1" parent="WIyWlLk6GJQsqaUBKTNV-1" source="TQT5Zc869bJqwaSMdIlr-12" target="TQT5Zc869bJqwaSMdIlr-19">
          <mxGeometry relative="1" as="geometry" />
        </mxCell>
        <mxCell id="TQT5Zc869bJqwaSMdIlr-21" value="是" style="edgeLabel;html=1;align=center;verticalAlign=middle;resizable=0;points=[];" vertex="1" connectable="0" parent="TQT5Zc869bJqwaSMdIlr-20">
          <mxGeometry x="-0.1429" y="2" relative="1" as="geometry">
            <mxPoint as="offset" />
          </mxGeometry>
        </mxCell>
        <mxCell id="TQT5Zc869bJqwaSMdIlr-12" value="是否选择TO和Cc分组" style="rhombus;whiteSpace=wrap;html=1;" vertex="1" parent="WIyWlLk6GJQsqaUBKTNV-1">
          <mxGeometry x="440" y="390" width="160" height="110" as="geometry" />
        </mxCell>
        <mxCell id="TQT5Zc869bJqwaSMdIlr-23" style="edgeStyle=orthogonalEdgeStyle;rounded=0;orthogonalLoop=1;jettySize=auto;html=1;exitX=0.5;exitY=0;exitDx=0;exitDy=0;entryX=0;entryY=0.5;entryDx=0;entryDy=0;endArrow=blockThin;endFill=0;" edge="1" parent="WIyWlLk6GJQsqaUBKTNV-1" source="TQT5Zc869bJqwaSMdIlr-18" target="TQT5Zc869bJqwaSMdIlr-22">
          <mxGeometry relative="1" as="geometry" />
        </mxCell>
        <mxCell id="TQT5Zc869bJqwaSMdIlr-18" value="发送至包含文件标签的全部邮件地址" style="rounded=1;whiteSpace=wrap;html=1;fontSize=12;glass=0;strokeWidth=1;shadow=0;" vertex="1" parent="WIyWlLk6GJQsqaUBKTNV-1">
          <mxGeometry x="310" y="360" width="140" height="40" as="geometry" />
        </mxCell>
        <mxCell id="TQT5Zc869bJqwaSMdIlr-24" style="edgeStyle=orthogonalEdgeStyle;rounded=0;orthogonalLoop=1;jettySize=auto;html=1;exitX=0.5;exitY=0;exitDx=0;exitDy=0;entryX=0.5;entryY=1;entryDx=0;entryDy=0;endArrow=blockThin;endFill=0;" edge="1" parent="WIyWlLk6GJQsqaUBKTNV-1" source="TQT5Zc869bJqwaSMdIlr-19" target="TQT5Zc869bJqwaSMdIlr-22">
          <mxGeometry relative="1" as="geometry" />
        </mxCell>
        <mxCell id="TQT5Zc869bJqwaSMdIlr-19" value="根据分组构建To和Cc邮件地址列表" style="rounded=1;whiteSpace=wrap;html=1;fontSize=12;glass=0;strokeWidth=1;shadow=0;" vertex="1" parent="WIyWlLk6GJQsqaUBKTNV-1">
          <mxGeometry x="450" y="280" width="140" height="40" as="geometry" />
        </mxCell>
        <mxCell id="TQT5Zc869bJqwaSMdIlr-22" value="发送邮件" style="rounded=1;whiteSpace=wrap;html=1;fontSize=12;glass=0;strokeWidth=1;shadow=0;" vertex="1" parent="WIyWlLk6GJQsqaUBKTNV-1">
          <mxGeometry x="450" y="180" width="140" height="40" as="geometry" />
        </mxCell>
      </root>
    </mxGraphModel>
  </diagram>
</mxfile>
